<svg width="73" height="24" viewBox="0 0 73 24" fill="none" xmlns="http://www.w3.org/2000/svg">
<mask id="mask0_0_6" style="mask-type:alpha" maskUnits="userSpaceOnUse" x="0" y="0" width="24" height="24">
<rect width="24" height="24" fill="#D9D9D9"/>
</mask>
<g mask="url(#mask0_0_6)">
<path d="M2 22V4C2 3.45 2.19583 2.97917 2.5875 2.5875C2.97917 2.19583 3.45 2 4 2H20C20.55 2 21.0208 2.19583 21.4125 2.5875C21.8042 2.97917 22 3.45 22 4V16C22 16.55 21.8042 17.0208 21.4125 17.4125C21.0208 17.8042 20.55 18 20 18H6L2 22ZM5.15 16H20V4H4V17.125L5.15 16Z" fill="#1C1B1F"/>
</g>
<mask id="mask1_0_6" style="mask-type:alpha" maskUnits="userSpaceOnUse" x="49" y="0" width="24" height="24">
<rect x="49" width="24" height="24" fill="#D9D9D9"/>
</mask>
<g mask="url(#mask1_0_6)">
<path d="M61 18.5C61.4167 18.5 61.7708 18.3542 62.0625 18.0625C62.3542 17.7708 62.5 17.4167 62.5 17H59.5C59.5 17.4167 59.6458 17.7708 59.9375 18.0625C60.2292 18.3542 60.5833 18.5 61 18.5ZM56 16H66V14H65V11.4C65 10.3833 64.7375 9.45417 64.2125 8.6125C63.6875 7.77083 62.95 7.23333 62 7V6.5C62 6.21667 61.9042 5.97917 61.7125 5.7875C61.5208 5.59583 61.2833 5.5 61 5.5C60.7167 5.5 60.4792 5.59583 60.2875 5.7875C60.0958 5.97917 60 6.21667 60 6.5V7C59.05 7.23333 58.3125 7.77083 57.7875 8.6125C57.2625 9.45417 57 10.3833 57 11.4V14H56V16ZM59 14V11C59 10.45 59.1958 9.97917 59.5875 9.5875C59.9792 9.19583 60.45 9 61 9C61.55 9 62.0208 9.19583 62.4125 9.5875C62.8042 9.97917 63 10.45 63 11V14H59ZM61 22C59.6167 22 58.3167 21.7375 57.1 21.2125C55.8833 20.6875 54.825 19.975 53.925 19.075C53.025 18.175 52.3125 17.1167 51.7875 15.9C51.2625 14.6833 51 13.3833 51 12C51 10.6167 51.2625 9.31667 51.7875 8.1C52.3125 6.88333 53.025 5.825 53.925 4.925C54.825 4.025 55.8833 3.3125 57.1 2.7875C58.3167 2.2625 59.6167 2 61 2C62.3833 2 63.6833 2.2625 64.9 2.7875C66.1167 3.3125 67.175 4.025 68.075 4.925C68.975 5.825 69.6875 6.88333 70.2125 8.1C70.7375 9.31667 71 10.6167 71 12C71 13.3833 70.7375 14.6833 70.2125 15.9C69.6875 17.1167 68.975 18.175 68.075 19.075C67.175 19.975 66.1167 20.6875 64.9 21.2125C63.6833 21.7375 62.3833 22 61 22ZM61 20C63.2333 20 65.125 19.225 66.675 17.675C68.225 16.125 69 14.2333 69 12C69 9.76667 68.225 7.875 66.675 6.325C65.125 4.775 63.2333 4 61 4C58.7667 4 56.875 4.775 55.325 6.325C53.775 7.875 53 9.76667 53 12C53 14.2333 53.775 16.125 55.325 17.675C56.875 19.225 58.7667 20 61 20Z" fill="#1C1B1F"/>
</g>
</svg>
